# ProBuilder 5.0.7
# https://unity3d.com/unity/features/worldbuilding/probuilder
# 20/05/2023 22:15:07

mtllib ./Door.mtl
o Door

g Door
v 0.03686965 -0.05496013 -0.0498109
v -2.029468 -0.05496013 -0.0498109
v 0.03686965 2.594329 -0.0498109
v -2.029468 2.594329 -0.0498109
v -2.029468 -0.05496013 -0.4120483
v -2.029468 2.594329 -0.4120483
v 0.03686965 -0.05496013 -0.4120483
v 0.03686965 2.594329 -0.4120483

vt 0.03686965 -0.05496013
vt -2.029468 -0.05496013
vt 0.03686965 2.594329
vt -2.029468 2.594329
vt -0.0498109 -0.05496013
vt -0.4120483 -0.05496013
vt -0.0498109 2.594329
vt -0.4120483 2.594329
vt 2.029468 -0.05496013
vt -0.03686965 -0.05496013
vt 2.029468 2.594329
vt -0.03686965 2.594329
vt 0.4120483 -0.05496013
vt 0.0498109 -0.05496013
vt 0.4120483 2.594329
vt 0.0498109 2.594329
vt -0.03686965 -0.0498109
vt 2.029468 -0.0498109
vt -0.03686965 -0.4120483
vt 2.029468 -0.4120483
vt 0.03686965 -0.4120483
vt -2.029468 -0.4120483
vt 0.03686965 -0.0498109
vt -2.029468 -0.0498109

vn 0 0 1
vn -1 0 0
vn 0 0 -1
vn 1 0 0
vn 0 1 0
vn 0 -1 0

usemtl Door
f 3/3/1 4/4/1 2/2/1 1/1/1
f 4/7/2 6/8/2 5/6/2 2/5/2
f 6/11/3 8/12/3 7/10/3 5/9/3
f 8/15/4 3/16/4 1/14/4 7/13/4
f 8/19/5 6/20/5 4/18/5 3/17/5
f 1/23/6 2/24/6 5/22/6 7/21/6

